<svg width="110" height="26" viewBox="0 0 110 26" fill="none" xmlns="http://www.w3.org/2000/svg">
<path d="M9.45414 0.776855C11.3471 0.776855 12.8881 2.26686 12.9441 4.12686L12.9461 4.23286V8.29586C12.9461 9.02986 12.4121 9.83585 11.6031 10.0959C10.7931 10.3529 10.3011 9.53985 10.2621 8.84085L10.2601 8.76586V4.23286C10.2595 4.11842 10.2345 4.00544 10.1866 3.9015C10.1387 3.79756 10.0692 3.70506 9.98259 3.63023C9.89602 3.5554 9.79443 3.49996 9.68465 3.46764C9.57487 3.43533 9.45945 3.42687 9.34614 3.44286L8.87914 3.50686L8.43014 3.57586C8.28414 3.59886 8.14014 3.62286 8.00014 3.64686L7.58914 3.72086C6.45014 3.93686 5.53914 4.18886 4.86214 4.47186C4.42814 4.65386 4.11214 4.83986 3.91414 5.01486C3.79114 5.12486 3.74414 5.19686 3.73414 5.24286C3.7253 5.28101 3.7173 5.31935 3.71014 5.35786L3.68814 5.49286L3.66614 5.64686L3.64614 5.81886L3.62614 6.00886L3.60814 6.21486L3.58314 6.55486L3.56014 6.92786L3.54014 7.33086L3.51614 7.91286L3.49614 8.53886L3.47614 9.37486L3.46114 10.4399L3.45314 11.5539V12.6019L3.46114 13.8039L3.47314 14.7969L3.49114 15.7679L3.51314 16.7039L3.53514 17.4169L3.56614 18.2549L3.60914 19.1619L3.64214 19.6969L3.66814 20.0569L3.69514 20.3769L3.72414 20.6559L3.74314 20.8119L3.78214 20.8509L3.81014 20.8759C3.98714 21.0259 4.29614 21.1999 4.73014 21.3779C5.15514 21.5509 5.67414 21.7189 6.28914 21.8799L6.63314 21.9679L6.99614 22.0529C7.18214 22.0959 7.37614 22.1379 7.57614 22.1799L7.98514 22.2619L8.41314 22.3419C8.55814 22.3689 8.70714 22.3959 8.85914 22.4219L9.32314 22.4989C9.53313 22.5339 9.74845 22.4844 9.922 22.361C10.0955 22.2377 10.2132 22.0507 10.2491 21.8409L10.2571 21.7769L10.2601 21.7119V19.0239C10.2623 17.7935 10.5813 16.5845 11.1865 15.5133C11.7916 14.442 12.6625 13.5447 13.7151 12.9079L13.8531 12.8269L17.1761 10.9039C17.8415 10.5211 18.3983 9.97487 18.7937 9.31694C19.1892 8.659 19.4103 7.91106 19.4361 7.14386L19.4381 7.00186V4.31386C19.4381 2.40486 21.0021 0.857855 22.9301 0.857855C23.1191 0.857855 23.3071 0.872855 23.4941 0.902855L23.9391 0.976855L24.3701 1.05186L24.7891 1.12786L25.1941 1.20686L25.5861 1.28686L25.7761 1.32786L26.1491 1.41086L26.3301 1.45386L26.6831 1.53986L27.0231 1.62986C29.6861 2.34986 31.0931 3.30286 31.2911 4.77086L31.3161 4.97586L31.3411 5.20786L31.3531 5.33286L31.3761 5.60286L31.4081 6.05186L31.4291 6.37786L31.4681 7.09086L31.5021 7.87386L31.5251 8.50086L31.5451 9.15685L31.5631 9.83685L31.5871 11.0119L31.5971 11.7349L31.6071 12.7099L31.6101 13.6879L31.6071 14.8979L31.6011 15.6079L31.5871 16.5279L31.5721 17.1929L31.5541 17.8299L31.5321 18.4349L31.5151 18.8179L31.4971 19.1839L31.4771 19.5299L31.4541 19.8559L31.4311 20.1609L31.4051 20.4429L31.3771 20.6999L31.3631 20.8189L31.3331 21.0369C31.3121 21.1729 31.2901 21.2909 31.2661 21.3879C30.8841 22.9729 29.2211 23.9809 26.2721 24.6689L25.9051 24.7519C25.7181 24.7919 25.5251 24.8319 25.3291 24.8699L24.9291 24.9459L24.5171 25.0179L24.3071 25.0529L23.8751 25.1219L23.4301 25.1869C21.5211 25.4599 19.7501 24.1499 19.4741 22.2609C19.4581 22.1514 19.4475 22.0413 19.4421 21.9309L19.4381 21.7659V17.7309C19.4381 16.9969 20.0891 16.0949 20.7811 15.9309C21.4731 15.7679 22.0831 16.4859 22.1221 17.1849L22.1241 17.2609V21.7659C22.1251 21.8808 22.1506 21.9942 22.1991 22.0985C22.2475 22.2028 22.3177 22.2954 22.405 22.3703C22.4923 22.4451 22.5945 22.5004 22.705 22.5324C22.8154 22.5644 22.9314 22.5724 23.0451 22.5559L23.2411 22.5269L23.6211 22.4689L23.9891 22.4089L24.1671 22.3779L24.5131 22.3149L24.8451 22.2509L25.1641 22.1859L25.4681 22.1189L25.7591 22.0519L26.0361 21.9829L26.2991 21.9139L26.5481 21.8449L26.6681 21.8099L26.8961 21.7399L27.1101 21.6699L27.3101 21.5999L27.4971 21.5309L27.6701 21.4609C27.7251 21.4389 27.7781 21.4159 27.8291 21.3929L27.9741 21.3249C28.0201 21.3029 28.0641 21.2799 28.1041 21.2579L28.2221 21.1919L28.2751 21.1589L28.3721 21.0949C28.5361 20.9779 28.6291 20.8689 28.6531 20.7709C28.6611 20.7389 28.6681 20.7039 28.6761 20.6649L28.6971 20.5399L28.7171 20.3969L28.7471 20.1489L28.7731 19.8639L28.7971 19.5439L28.8261 19.0659L28.8511 18.5359L28.8771 17.8069L28.8891 17.3399L28.9061 16.5179L28.9191 15.4729L28.9241 14.1969V13.4519L28.9191 12.7589L28.9081 11.6839L28.8921 10.6759L28.8611 9.31886L28.8331 8.40886L28.7931 7.40286L28.7631 6.79786L28.7301 6.25186L28.7131 6.00386L28.6861 5.66586L28.6581 5.37086L28.6381 5.20486L28.6061 5.17286L28.5781 5.14886C28.4041 4.99886 28.0971 4.82586 27.6631 4.64886C27.0081 4.38086 26.1221 4.12586 25.0121 3.88886L24.6101 3.80586L24.1901 3.72386L23.7521 3.64386L23.2961 3.56486C23.2175 3.552 23.1388 3.53933 23.0601 3.52686C22.9506 3.50834 22.8383 3.51277 22.7305 3.53988C22.6228 3.56698 22.5218 3.61616 22.434 3.68431C22.3462 3.75246 22.2735 3.83809 22.2205 3.93578C22.1675 4.03347 22.1354 4.1411 22.1261 4.25186L22.1241 4.31386V7.00186C22.122 8.23219 21.803 9.44122 21.1978 10.5124C20.5927 11.5837 19.7218 12.481 18.6691 13.1179L18.5311 13.1999L15.2081 15.1219C14.5427 15.5046 13.986 16.0508 13.5905 16.7088C13.1951 17.3667 12.974 18.1146 12.9481 18.8819L12.9461 19.0239V21.7119C12.9461 21.8989 12.9311 22.0859 12.9001 22.2709C12.5881 24.1539 10.7931 25.4309 8.89014 25.1229L8.44614 25.0499L8.01614 24.9749L7.60014 24.8979L7.19614 24.8199L6.80614 24.7399C6.74276 24.7264 6.67943 24.7127 6.61614 24.6989L6.24414 24.6159C6.18409 24.6017 6.12409 24.5874 6.06414 24.5729L5.71214 24.4869L5.37414 24.3989C2.71814 23.6799 1.30814 22.7289 1.09414 21.2689L1.07214 21.0989L1.05014 20.9089L1.02814 20.6979L0.998137 20.3459L0.958137 19.8169L0.932137 19.3769L0.907137 18.9059L0.877137 18.2309L0.856137 17.6949L0.826137 16.7509L0.798137 15.5549L0.780137 14.5199L0.770137 13.6779L0.767137 13.0429L0.765137 12.5489L0.767137 11.4559L0.776137 10.4729L0.791137 9.52085L0.813137 8.61086L0.835137 7.92286L0.855137 7.43286L0.886137 6.81986L0.922137 6.25786L0.952137 5.87486L0.972137 5.63786L0.996137 5.41786L1.00714 5.31486L1.03214 5.12086L1.05814 4.94486L1.08514 4.78786L1.11414 4.65086C1.46314 3.13586 2.92514 2.13886 5.48414 1.46386L5.82314 1.37686L6.17514 1.29486L6.35614 1.25486L6.72714 1.17686L7.11014 1.10286L7.30714 1.06686L7.70814 0.996855L7.91414 0.963855L8.33414 0.898855L8.54914 0.867855L8.98914 0.807855C9.14214 0.786855 9.29714 0.776855 9.45314 0.776855H9.45414ZM47.3871 5.99986H52.2321H55.6191V19.7029H52.2321H47.3871H44.0001V5.99986H47.3871ZM72.8631 5.99986V8.67186L73.0881 11.4559L72.8631 14.1969L73.0881 17.0299V19.7029H63.8981V5.99986H72.8631ZM82.7821 5.99986C84.5741 13.2999 85.458 5.90686 85.5 6.05186C85.564 5.91386 86.5621 13.3079 88.4261 5.99986H91.8711L87.6951 19.7029H83.3771L79.2001 5.99986H82.7821ZM100.271 5.99986L102 7.43286C102.06 7.33086 103.48 10.2129 105.11 5.99986H108.612L104.339 15.0019V19.7019H100.952V15.0019L96.6801 5.99986H100.271Z" fill="white"/>
</svg>
